<svg xmlns="http://www.w3.org/2000/svg" viewBox="0 0 512 512" width="512" height="512">
  <defs>
    <linearGradient id="bg" x1="0" y1="0" x2="1" y2="1">
      <stop offset="0" stop-color="#ffd3df"/>
      <stop offset="0.55" stop-color="#ffa5be"/>
      <stop offset="1" stop-color="#f97fa4"/>
    </linearGradient>
    <linearGradient id="cam" x1="0" y1="0" x2="1" y2="1">
      <stop offset="0" stop-color="#ffffff"/>
      <stop offset="1" stop-color="#fff0f4"/>
    </linearGradient>
  </defs>
  <rect width="512" height="512" rx="115" fill="url(#bg)"/>
  <!-- camera body -->
  <rect x="120" y="176" width="272" height="192" rx="44" fill="url(#cam)"/>
  <rect x="212" y="150" width="88" height="46" rx="18" fill="url(#cam)"/>
  <!-- lens -->
  <circle cx="256" cy="272" r="58" fill="#ffb6cb"/>
  <circle cx="256" cy="272" r="34" fill="#f97fa4"/>
  <circle cx="240" cy="256" r="12" fill="#ffffff" opacity="0.9"/>
  <!-- sparkles -->
  <path d="M392 120 l10 26 26 10 -26 10 -10 26 -10 -26 -26 -10 26 -10z" fill="#ffffff" opacity="0.95"/>
  <path d="M150 96 l6 16 16 6 -16 6 -6 16 -6 -16 -16 -6 16 -6z" fill="#ffffff" opacity="0.85"/>
</svg>
